<svg xmlns="http://www.w3.org/2000/svg" xmlns:xlink="http://www.w3.org/1999/xlink" viewBox="258 10 720 720" width="720" height="720" role="img" aria-label="Menacing neon penguin">
<defs>
<clipPath id="rc"><rect x="258" y="10" width="720" height="720" rx="129" ry="129"/></clipPath>
<radialGradient id="aura" cx="50%" cy="44%" r="55%">
  <stop offset="0%" stop-color="#ff1030" stop-opacity="0.62"/><stop offset="34%" stop-color="#c00820" stop-opacity="0.33"/>
  <stop offset="70%" stop-color="#50040c" stop-opacity="0.12"/><stop offset="100%" stop-color="#000" stop-opacity="0"/>
</radialGradient>
<radialGradient id="vig" cx="50%" cy="50%" r="62%"><stop offset="53%" stop-color="#000" stop-opacity="0"/><stop offset="100%" stop-color="#000" stop-opacity="0.9"/></radialGradient>
<filter id="bloom" x="-40%" y="-40%" width="180%" height="180%" color-interpolation-filters="sRGB">
  <feGaussianBlur stdDeviation="6" result="b"/><feComponentTransfer in="b" result="bb"><feFuncR type="linear" slope="2.0"/><feFuncG type="linear" slope="1.35"/><feFuncB type="linear" slope="1.4"/></feComponentTransfer>
  <feMerge><feMergeNode in="bb"/><feMergeNode in="bb"/><feMergeNode in="bb"/></feMerge>
</filter>
<filter id="eyefar" x="-500%" y="-500%" width="1100%" height="1100%" color-interpolation-filters="sRGB"><feGaussianBlur stdDeviation="16"/><feMerge><feMergeNode/><feMergeNode/></feMerge></filter>
<filter id="eyered" x="-400%" y="-400%" width="900%" height="900%" color-interpolation-filters="sRGB"><feGaussianBlur stdDeviation="7"/><feMerge><feMergeNode/><feMergeNode/><feMergeNode/></feMerge></filter>
<filter id="eyecore" x="-200%" y="-200%" width="500%" height="500%" color-interpolation-filters="sRGB"><feGaussianBlur stdDeviation="1.6"/></filter>
<g id="art"><path fill="#581715" d="m580 141 2 1v2l4.875 1 2.742.563C592 146 592 146 594 146l4 1v2l4-1v-2l6 2 1-2 7 1v2h5l-1-3h4v4l4 1v-3l-2-1v-2c3.03.59 6.002 1.25 9 2l1-3 3 1 2-2 3 2a167 167 0 0 0 6 2v2l4 1v2h2v-2h2v2h2v4l2.188-.937L665 155c3.874 4.304 5 6.115 5 12l-1 3c.243 2.404.565 4.8.938 7.188l.59 3.855L671 184l2-2c1 1 1 1 1 6l4 2v2l-3 1 1 3h2l.938 3.313A170 170 0 0 0 681 206c.37 1.993.697 3.995 1 6l.688 4.25L683 220l-2 2c-.24 4.812.056 9.28 1 14h2v-2l3-1 1 3h-2v2l-4 2v2l3-2c3.875.303 7.31.77 11 2 3 4 3 4 3 6l-5-1 1 1 1 2h2v6h2l1 3 4 2-3 1 1 3h3c2.012.631 4.014 1.294 6 2l1-3v4l1 2 3 1v2l-3 1v-2h-3c2.22 3.329 3.347 3.75 7 5l-2 1v2h-3v4h3v-2h2l-2 8h-2l2 2h3c-1 4-1 4-4 8v4h2c1.354 2.709 1.065 5.01 1 8h-2v2h-2l2 2h3l-1 4-1-1v3l3 1 1-3h7l-2-4v-4c3.393.54 6.662 1.166 10 2l1-4h3v2l-2 1 2 1v2a126 126 0 0 1-7 3l2 .313c3.817.874 7.356 2.266 11 3.687v-2l4 2v3l-3 3-1 3h2l1-2 1 4-3 3 1 2 4 1c2.333 9.333 2.333 9.333 1 12h-2c-.25 5.625-.25 5.625 2 9l1-2-2-1 1-3h3l1-4h1v5l-1 1 3 2-3 1 1 4h2l1-2v6h-2l3 3v5l-4 1 .688 2.125c.407 3.752-.824 5.67-2.688 8.875l3 1-1.937 1.625c-2.518 2.9-2.908 4.566-3.063 8.375.938 2.875.938 2.875 2 5l-2 1c.313 3.438.313 3.438 1 7l3 1 1 3-2 1 1 3h2v-2l2 1-1 7h-2l-1 2 2 1-3 3v4h2v2l-3 2 4 2v3l-5-1v4h2c3 4 3 4 3 6l4-1-1 4 5-1-2-6c3 1 3 1 4.188 3.375 1.058 3.419.946 5.222-.188 8.625h-2v-2h-2c1.063 2.375 1.063 2.375 3 5 3.688 1.313 3.688 1.313 7 2v2l8 2 1-3 3 4h-2l-1 3-1 1 2 1v3h2l-2 4-3-2 .75 2.313L784 487c-4 3-4 3-6 3l1 3 4-1-1 6h-4v-2l-2 2v2h4v2h2v2l-2 1 1 3 4 2 2 4c2.46.46 2.46.46 5.375.375l2.898-.04C798 514 798 514 802 512v-2c3.123.486 5.996.999 9 2l-2 8-1-2v6l-3 2-1 4-4 3-2 4q-2.495.524-5 1c-2.753 2.294-3.858 3.574-5 7l-2.5 1.438C783 548 783 548 782 552h-2l-1-4-3 1-1-1 2 4 3 1c-2 1-2 1-5.125.063L772 552v-3l-2 2 2 3h4v2h-2v2c-3.945.807-6 1-10 0v-2h2v-3l-2-1v2h-2l-1 6h-3l2-8-3-1 1-3c3.063-1.187 3.063-1.187 6-2l1 3 1.188-3.562c3.067-6.303 9.649-8.78 15.812-11.438h2l1-5h2c-1.368-4.478-3.027-6.517-7-9l-4.625-1.25c-8.525-2.392-15.408-7.398-20-15-2.447-5.013-3.083-9.578-3.172-15.121C752 486 752 486 750 482c-6.37-.588-11.88.446-18 2v2l-2.437.75c-3.563 1.25-3.563 1.25-8 3.313-8.055 3.42-12.404 3.223-20.563-.063-7.822-3.84-14.415-9.585-20.75-15.5-3.25-2.5-3.25-2.5-6.375-3-2.866.498-5.247 1.263-7.875 2.5v-2h2l2-4c3-.812 3-.812 7 0 4.468 3.301 8.276 7.238 12.152 11.2 2.126 2.071 4.246 3.375 6.848 4.8l2.742 1.555c5.64 2.502 11.215 2.275 17.258 1.445 4.747-1.915 8.53-4.469 12.07-8.156 2.514-2.402 4.533-2.535 7.93-2.844v-2h4c-.242-3.548-.548-5.49-2.937-8.187-8.461-5.008-20.078-7.208-29.782-5.27-3.109 1.02-6.055 2.354-9.031 3.707-2.808.936-4.464.678-7.25-.25l-1-2c3.437-8.99 7.73-14.777 16-20a158 158 0 0 1 6-2c.034-23.423-2.324-40.788-15-61q-1.725-2.809-3.437-5.625c-.474-.755-.947-1.51-1.434-2.29C691 369 691 369 690 365h3c1.508 1.914 1.508 1.914 3.125 4.625a423 423 0 0 0 8.563 13.5C715.598 400.24 718.223 419.009 715 439l4.25.25c4.695.741 6.013 1.06 8.75 4.75l-2 1-2-1c-8.675-.609-16.173 1.57-23 7-3.255 3.472-4.838 5.35-6 10 .837-.36 1.673-.722 2.535-1.094 11.733-4.677 23.096-6.188 35.031-1.258 4.003 2.223 7.062 5.271 10.434 8.352 2.727.707 2.727.707 5 1 1.27-9.033 2.431-17.87 2-27l-.187-4.562c-1.255-11.233-5.316-22.3-8.97-32.95-1.505-4.441-2.706-8.94-3.843-13.488h-2a199 199 0 0 1-3-6l-1.875-2.812c-1.727-2.59-3.215-5.142-4.687-7.875C723 369 723 369 720 366c-1.896-2.844-3.19-5.488-4.437-8.687C714 354 714 354 710 352c-1.86-3.012-1.86-3.012-3.75-6.687-3.628-6.617-7.318-11.847-14.25-15.313v-2h-2l-3-10h-2a154 154 0 0 1-8.25-11.437C675 304 675 304 673 303a119 119 0 0 1-2-6.875c-1.79-6.81-1.79-6.81-4-10.125-2.335-12.408-2.356-25.222-2.658-37.804l-.096-3.778-.072-3.382c-.16-2.786-.582-5.316-1.174-8.036q-.291-3.435-.5-6.875c-.314-4.754-.767-9.415-1.5-14.125v-3l-2-1c-1.428-3.986-2.742-7.875-3.687-12-2.741-6.265-7.921-10.956-13.313-15l-1-3c-2.04-1.281-2.04-1.281-4.625-2.5l-2.54-1.219L631 173l-3.312-1.582c-11.982-4.607-26.393-4.492-38.688-1.418l-4.375.813C576.329 172.943 569.894 175.7 564 182l-2.64 2.684c-.862.908-1.723 1.817-2.61 2.754l-2.64 2.746c-2.313 3.087-2.655 5.054-3.11 8.816l-2 1c-3.477 7.788-5.655 15.471-6 24l-.254 3.454a269 269 0 0 0-.633 24.198l.046 2.787c.062 3.78.125 7.56.239 11.338.546 19.151-2.959 38.483-16.398 53.223l-2.375 2.313c-2.606 2.667-4.809 5.489-7.004 8.5-2.306 3.112-4.757 6.106-7.203 9.109C510 341 510 341 509 345l-3 2-2 3.5c-2 3.5-2 3.5-5 5.5a712 712 0 0 0-4 8l-2.437 3.375c-3.633 5.14-6.57 10.644-8.563 16.625h-2l-1.437 4.313L478 396h-2l-.297 3.04c-.753 4.244-2.109 7.446-3.953 11.335-3.767 8.355-6.427 16.77-8.75 25.625l-.75 2.625c-2.945 11.779-2.89 27.229 2.063 38.313 2.005 2.451 3.683 3.169 6.687 4.062l1.188-4c1.63-4.897 3.827-8.79 6.812-13h2v-3c4-2 4-2 9-2v-3l6 2-1.68-3.14-2.195-4.11-2.18-4.078c-5.477-10.34-5.217-17.512-2.945-28.672l.629-3.492c1.299-6.785 3.075-12.719 6.113-18.922 1.233-2.535 2.295-5.086 3.32-7.711 1.843-4.692 3.864-9.282 5.938-13.875l2 2c-1.007 4.028-2.346 7.741-3.812 11.625-.54 1.432-1.078 2.864-1.633 4.34a291 291 0 0 1-3.743 9.223c-2.02 4.934-3.11 10.013-4.199 15.222C491 419 491 419 490 420c-.618 7.98.026 14.514 3 22q1.357 3.682 2.688 7.375l1.324 3.586c1.049 3.225.988 5.673.988 9.039h2a105 105 0 0 1 3.438 5.875c3.23 5.904 3.23 5.904 6.562 8.125 2.03.38 4.075.683 6.125.938 14.641 2.107 27.64 8.288 37.875 19.062l2.563 2.313c5.3 5.844 7.121 11.39 6.832 19.132-.799 5.17-3.826 7.986-7.395 11.555-4.437 1.813-4.437 1.813-9 3-4.638-2.319-6.167-4.75-9-9l2-1v2c4.607 1.536 9.19 1.541 14 1 2.656-1.897 3.572-3.145 5-6 .745-7.197-1.059-10.286-5-16v-2l-4-2-2.258-2.367C538.697 487.949 525.081 484.688 513 483c1 4 1 4 4 7a147 147 0 0 1 3 7h-2a150 150 0 0 1-5.5-7.187l-1.512-2.042c-2.542-3.493-4.457-6.75-5.988-10.771-1.586-2.203-1.586-2.203-3.375-4.25l-1.773-2.078C498 469 498 469 494 468c-6.07 1.518-9.474 2.782-13 8h-2l-2 8h-2l-1.25 4.313c-1.257 4.337-1.795 4.72-5.75 7.687h-3l-2 4c-6.908 3.108-12.603 3.274-20.062 2.688l-2.913-.186A636 636 0 0 1 433 502l-.375 2.375C432 507 432 507 430 509c.044 3.057.19 6.02.438 9.063.686 9.201 1.023 17.004-3.5 25.25-3.171 6.416-3.625 11.629-2.938 18.687l5 2v4l-3-1c-2.811.422-5.299 1.1-8 2l-2.125-2.312C412.16 563.215 408.94 562.81 404 562v-2h-2l-1-8-1 5-4-5h2l-1-3h-4l1-6-4-2v-3h2l1-4 1 4h6l2 2 2-2-2-1 3-3 1 4c4 0 4 0 7-1l1 4 4-2c2.238-7.782 1.171-17.302-1-25l-3-3-1-3 2-3-2-3c1-3 1-3 3-6l-2 2c-2.625-.375-2.625-.375-5-1 .256-2.343.593-4.678 1-7l2-1v2c2.25.75 2.25.75 5 1 2.188-1.937 2.188-1.937 4-4h2l-1 4h-2v3h2v-2h2v-5h2v2c5 0 5 0 8-2h3l-3-4v-2l3-2 1-3 4-1-2-3.75c-2-4.25-2-4.25-2-8.25h2l1-3-2-1-1 2h-2l-1 2c.75-6.625.75-6.625 3-10h2l1-2-2.375-.875C436 450 436 450 434 448v-4h2v4l3-3-3-4v-4l-3 1 1-4 4 2v2l3-1-1-3c-3.062-1.187-3.062-1.187-6-2l2-4 2.188 1.625C441 431 441 431 443.813 430.188L446 429v-2l-4-1v-2h-2v-2l-3-1c1.355-4.066 3.57-5.53 7-8l3 1 1-2h-3l-1-3 3-1v-4l-3 1c.375-2.437.375-2.437 1-5l2-1-1-1-4 2-3-2c-.257-3.08-.394-5.211 1-8h2l2 6v-2h2l-2-6h6l.313-2.437L451 383l3-1v-2l1-1-3-1-1 2c-1.354-2.709-1.065-5.01-1-8h2v4h5v-2l-4-1c-.625-2.437-.625-2.437-1-5l-2-2c-.125-3.125-.125-3.125 0-6h2v-2l4-3h-5l-1-4 6 1v-2l-2-1v-5h-2v-2h-2l-1-3 3-3h4c-2-2-2-2-4.625-3.562-.784-.475-1.567-.95-2.375-1.438v-1c6.75.875 6.75.875 9 2v2l5 1 1-7h4l-1-2-5 1v5h-2v-2h-4l-1-4h5v-2h-2l-1-2-3 1-2-2 8-1-3-4 1-3c3.125-1.062 3.125-1.062 7-1 3.938 2.938 3.938 2.938 7 6l1-2 3 2c.188 3.125.188 3.125 0 6l-4 1 4 1v2l2.125-.562c3.214-.49 5.71-.1 8.875.562l-2-7 3-1 2 6v-6l2.438 1.063L495 322l1-1-.062-3.25c.059-3.552.535-5.601 2.062-8.75l-2-1 2-6 4 2h1l1-4-2-1h2l2-4 2.688-2 2.312-2-1-4 4-1 2-2v5c2-3 2-3 1.75-6.125L517 280l-2-1 1-3 3 1 1-3-4-2v-2h5v-3l-3 1v-2h-2v-2h4v-2l-2-1q-.617-4.486-1-9l3 1v5h2v-8l-4-1v-3h2c.163-4.889.224-7.553-2-12v-2l3 1-1-6-5 5c.25-2.812.25-2.812 1-6l4-3c.125-3.062.125-3.062 0-6l2-2-5-2 2-5 4 2-2-6-3 1v-3h3l1-3 9 1-2-5h4c4.161-6.097 5.651-10.678 6-18l2 2 1-7h2l1 2 1-4-3-1v-2l3-1v2l3-1-1-2c4-1 4-1 8-1l1-2a76 76 0 0 1 5-1l3-1 1.5-4 1.5-4 3-1 1.313-3.375C574 144 574 144 577.063 142z"/><path fill="#b82c2c" d="M587 153c2.437.044 4.875.04 7.313 0 11.822-.065 23.473.38 35.101 2.61 2.586.39 2.586.39 7.024.202 3.562.188 3.562.188 6.437 2.5C645 161 645 161 647 164l1-2c4 1 4 1 5.75 3.563L655 168l1-2 4 2h-2v4h2c3.343 5.069 5.21 10.224 7 16l1.188 3.313C669 194 669 194 669 198l3 1a174 174 0 0 1 2 9l1 1c.95 6.554 1.055 12.891.938 19.5-.099 9.66.64 18.932 2.062 28.5l4 1c2.991 1.068 4.737 1.737 7 4 .275 3.349.086 6.635 0 10h2l-1 6h2v-2h2l-2 8h2l1 6h2l1 3h3l1 3h-2v2h5l.228 2.292c.35 3.445.717 6.89 1.085 10.333l.357 3.605.38 3.497.334 3.205c.69 3.44 1.845 6.047 3.616 9.068l2 1v4l2.703.184 3.547.253 3.516.247C726 336 726 336 730 337c1 4 1 4 0 7l1 4h4l-.562 3.25c-.526 5.708-.053 11.069.562 16.75h2c1.508 1.898 1.508 1.898 3.125 4.375l1.633 2.46C743 377 743 377 743 379l3 1c1.685 4.545.672 9.115.063 13.813l-.59 4.644L745 402h-3c-1.5-2.309-1.5-2.309-3-5.437l-1.5-3.06C736 390 736 390 734.652 385.716c-1.858-5.302-4.272-9.875-7.09-14.715l-1.595-2.762c-10.84-18.479-24.265-35.315-38.026-51.687-13.364-16.178-18.217-31.459-19.129-52.363l-.23-4.307a742 742 0 0 1-.781-20.389c-.548-22.605-2.956-43.333-19.528-60.414-12.766-11.67-28.829-15.656-45.824-15.328-18.167 1.317-35.327 6.664-47.636 20.754-10.912 15.026-13.685 31.038-14.375 49.121l-.134 3.343c-.376 10.61-.345 21.214-.18 31.83.15 16.235-2.294 29.317-11.562 42.765l-1.573 2.323c-4.71 6.873-9.754 13.47-14.864 20.048-3.847 4.966-7.48 10.079-11.102 15.21A315 315 0 0 1 496 356l-.937 2.875c-1.366 4.016-3.13 8.159-7.063 10.125l-.875 2.688C486 375 486 375 484.188 377.563c-3.262 5.125-5.126 10.742-7.188 16.437h-2l-.312 1.938c-1.369 6.094-3.46 11.686-6.125 17.312-2.473 5.258-4.122 10.602-5.668 16.195C462 432 462 432 460 433l-2-1v-4l2-1 1-3h-2v-4h4v-2l-4-2-1-4h3v-4h-3v-4l8-4-1-4 1.875-2.437c2.776-4.654 2.651-8.496 2.754-13.833L470 377l3-1-.312-2.75c.312-3.25.312-3.25 2.687-5.5L478 366l2-2h-2v-2l-2-1 2-2 1-3 3-1-1-4 3-3v4l3-2-1-3c4.75-3 4.75-3 7-3l.262-2.16c.894-3.44 2.397-5.46 4.55-8.277l2.188-2.938a445 445 0 0 1 4.313-5.562c2.171-3.941 2.98-7.869 3.878-12.258C509 310 509 310 512 306c4.188-.75 4.188-.75 8-1v-3l2.938-1.125L526 299c.658-3.189.911-5.786 1-9q.233-3.22.5-6.437l.219-3.06C528 278 528 278 529 276c.097-2.009.13-4.02.133-6.031l.004-3.645-.012-3.824.012-3.824-.004-3.645-.004-3.357C529 249 529 249 528 247c.044-10.38 1.117-20.05 4-30a66 66 0 0 0 1.29-7.797c.789-6.942 2.394-10.665 6.995-15.86 1.998-2.73 2.667-5.084 3.528-8.343 2.389-8.099 8.131-12.784 15.382-16.746C562 167 562 167 564 167v-2l5-2v-2l2.75-1.312c3.488-1.812 4.95-3.568 7.25-6.688 2.87-1.435 4.855-.531 8 0"/><path fill="#5b1817" d="M691 364c2.975 2.794 5.172 5.593 7.313 9.063 1.827 2.945 3.653 5.885 5.554 8.785C715.332 399.34 718.34 418.292 715 439l4.25.25c4.695.741 6.013 1.06 8.75 4.75l-2 1-2-1c-8.675-.609-16.173 1.57-23 7-3.255 3.472-4.838 5.35-6 10 .837-.36 1.673-.722 2.535-1.094 11.733-4.677 23.096-6.188 35.031-1.258 4.003 2.223 7.062 5.271 10.434 8.352 2.727.707 2.727.707 5 1 2.044-12.741 2.213-25.13 2-38h3l.184 2.45.254 3.238c.08 1.055.162 2.111.246 3.199.648 6.376 1.583 8.623 6.316 13.113v2l4-1-1 4 5-1-2-6c3 1 3 1 4.188 3.375 1.058 3.419.946 5.222-.188 8.625h-2v-2h-2c1.063 2.375 1.063 2.375 3 5 3.688 1.313 3.688 1.313 7 2v2l8 2 1-3 3 4h-2l-1 3-1 1 2 1v3h2l-2 4-3-2 .75 2.313L784 487c-4 3-4 3-6 3l1 3 4-1-1 6h-4v-2l-2 2v2h4v2h2v2l-2 1 1 3 4 2 2 4c2.46.46 2.46.46 5.375.375l2.898-.04C798 514 798 514 802 512v-2c3.123.486 5.996.999 9 2l-2 8-1-2v6l-3 2-1 4-4 3-2 4q-2.495.524-5 1c-2.753 2.294-3.858 3.574-5 7l-2.5 1.438C783 548 783 548 782 552h-2l-1-4-3 1-1-1 2 4 3 1c-2 1-2 1-5.125.063L772 552v-3l-2 2 2 3h4v2h-2v2c-3.945.807-6 1-10 0v-2h2v-3l-2-1v2h-2l-1 6h-3l2-8-3-1 1-3c3.063-1.187 3.063-1.187 6-2l1 3 1.188-3.562c3.067-6.303 9.649-8.78 15.812-11.438h2l1-5h2c-1.368-4.478-3.027-6.517-7-9l-4.625-1.25c-8.525-2.392-15.408-7.398-20-15-2.447-5.013-3.083-9.578-3.172-15.121C752 486 752 486 750 482c-6.37-.588-11.88.446-18 2v2l-2.437.75c-3.563 1.25-3.563 1.25-8 3.313-8.055 3.42-12.404 3.223-20.563-.063-7.822-3.84-14.415-9.585-20.75-15.5-3.25-2.5-3.25-2.5-6.375-3-2.866.498-5.247 1.263-7.875 2.5v-2h2l2-4c3-.812 3-.812 7 0 4.468 3.301 8.276 7.238 12.152 11.2 2.126 2.071 4.246 3.375 6.848 4.8l2.742 1.555c5.64 2.502 11.215 2.275 17.258 1.445 4.747-1.915 8.53-4.469 12.07-8.156 2.514-2.402 4.533-2.535 7.93-2.844v-2h4c-.242-3.548-.548-5.49-2.937-8.187-8.461-5.008-20.078-7.208-29.782-5.27-3.109 1.02-6.055 2.354-9.031 3.707-2.808.936-4.464.678-7.25-.25l-1-2c3.437-8.99 7.73-14.777 16-20a158 158 0 0 1 6-2c.034-23.423-2.324-40.788-15-61q-1.725-2.809-3.437-5.625c-.474-.755-.947-1.51-1.434-2.29C691 369 691 369 690 365z"/><path fill="#e68488" d="m604.938 157.688 3.198.014c7.335.111 13.945.713 20.864 3.298l2.988.996c15.8 5.802 26.71 18.25 34.012 33.004l1.566 2.898c1.547 3.347 2.333 6.429 3.059 10.04l.727 3.527c1.287 7.018 1.882 13.917 2.148 21.043l.123 3.038q.193 4.79.377 9.579c1.025 26.234 1.025 26.234 2 36.875h2l.063 3.625c1.296 11.157 8.265 20.303 15.449 28.5 4.946 5.715 9.238 11.925 13.363 18.25 3.351 5.106 7.108 9.889 10.855 14.707 4.424 5.688 8.223 11.05 10.707 17.856 1.71 4.445 3.997 8.057 6.563 12.062 4 7.351 4 7.351 4 12h-2a184 184 0 0 1-4.375-8.312C724.815 365.446 715.734 351.356 705 338q-1.816-2.34-3.625-4.687a934 934 0 0 0-7.312-9.25l-2.028-2.54a368 368 0 0 0-4.039-4.921c-13.396-16.202-18.27-31.468-19.183-52.414l-.231-4.307a742 742 0 0 1-.781-20.389c-.548-22.605-2.956-43.333-19.528-60.414-12.766-11.67-28.829-15.656-45.824-15.328-18.167 1.317-35.327 6.664-47.636 20.754-10.912 15.026-13.685 31.038-14.375 49.121l-.134 3.343c-.376 10.61-.345 21.214-.18 31.83.15 16.235-2.294 29.317-11.562 42.765l-1.573 2.323c-4.714 6.879-9.764 13.482-14.876 20.067-5.846 7.55-11.389 15.326-16.55 23.36C493 361 493 361 490 362c4.04-10.585 10.062-19.83 16.766-28.906 1.907-2.641 3.562-5.304 5.234-8.094a323 323 0 0 1 4.313-5.812l2.406-3.192a512 512 0 0 1 4.062-5.273c14.523-18.71 12.767-41.486 12.719-63.91-.012-5.661.002-11.32.031-16.981l-.034-3.836c.077-13.775 3.59-26.101 10.503-37.996l1.484-2.613c7.805-12.423 22.909-22.398 37.037-26.036 6.806-1.374 13.486-1.702 20.417-1.663"/><path fill="#5a1715" d="M648.05 177.668c14.6 13.295 19.729 33.489 20.645 52.508.164 3.711.3 7.424.43 11.136q.11 2.796.223 5.592l.33 8.242c.228 5.737.482 11.472.787 17.206l.207 3.904c1.535 17.51 9.513 31.054 21.328 43.744 2.73 3.283 5.356 6.647 8 10l3.2 3.973A287 287 0 0 1 726 367l1.488 2.507a637 637 0 0 1 4.262 7.368l1.306 2.252C735.338 383.222 736 385.164 736 390l-2-3-2.812-4.125a118 118 0 0 1-5.875-9.75C723 369 723 369 720 366c-1.896-2.844-3.19-5.488-4.437-8.688C714 354 714 354 710 352c-1.86-3.012-1.86-3.012-3.75-6.688-3.628-6.616-7.318-11.846-14.25-15.312v-2h-2l-3-10h-2a154 154 0 0 1-8.25-11.438C675 304 675 304 673 303a119 119 0 0 1-2-6.875c-1.79-6.81-1.79-6.81-4-10.125-2.335-12.408-2.356-25.222-2.658-37.804l-.096-3.778-.072-3.382c-.16-2.786-.582-5.316-1.174-8.036q-.291-3.435-.5-6.875c-.314-4.754-.767-9.415-1.5-14.125v-3l-2-1c-1.428-3.986-2.742-7.875-3.687-12-2.741-6.265-7.921-10.956-13.313-15l-1-3c-2.04-1.281-2.04-1.281-4.625-2.5l-2.54-1.219L631 173l-3.312-1.582c-11.982-4.607-26.393-4.492-38.688-1.418l-4.375.812c-8.296 2.13-14.731 4.89-20.625 11.188l-2.64 2.684-2.61 2.753-2.64 2.747c-2.313 3.087-2.655 5.054-3.11 8.816l-2 1c-3.477 7.788-5.655 15.471-6 24l-.254 3.454a269 269 0 0 0-.633 24.198l.046 2.787c.062 3.78.125 7.56.239 11.338.546 19.151-2.959 38.483-16.398 53.223l-2.375 2.312c-2.606 2.668-4.809 5.49-7.004 8.5-2.306 3.113-4.757 6.107-7.203 9.11C510 341 510 341 509 345a195 195 0 0 1-7 5c-1.702 1.63-3.383 3.285-5 5 2.14-4.28 4.737-8.05 7.5-11.938l1.629-2.302c3.19-4.484 6.471-8.87 9.871-13.198 3.982-5.128 7.731-10.378 11.375-15.75l1.516-2.195c9.609-14.363 10.416-29.01 10.172-45.93-.433-63.334-.433-63.334 17.257-82.156 24.857-23.376 65.13-25.498 91.73-3.863"/><path fill="#f5b7b9" d="M637.75 231.875c3.863 1.932 6.34 5.304 8.25 9.125.478 6.93-.358 12.609-4.723 18.21-1.724 1.962-3.498 3.879-5.277 5.79l-1 2 2.25 1.125c3.252 2.217 4.801 4.483 6.75 7.875v2h-2l-2-4c-3.693-2.008-7.108-2.253-11.25-2.562-6.278-.784-11.024-2.933-16.437-6.063-7.09-3.971-11.258-5.924-19.313-4.375-3.687 2.75-3.687 2.75-7 6-5.776 3.386-11.606 5.137-18.047 6.777-3.586 1.485-4.966 2.91-6.953 6.223v5l-3-1c-.504-3.53-.74-6.005 1.453-8.953 2.664-2.664 5.414-4.958 8.547-7.047l-3.687-1.875c-6.259-3.906-8.489-9.883-10.25-16.812-.094-4.952.793-8.66 3.625-12.75 3.426-2.316 5.23-2.232 9.312-1.563 8.716 4.365 14.38 10.95 18 20-.25 4-.25 4-1 7l4.063-2.875c3.948-2.587 7.154-4.613 11.937-5.125 3.21 1.045 5.967 2.461 9 4l4 1 .688-4c1.156-5.194 3.157-8.718 6.312-13l4-2 2-4c7.317-3.923 7.317-3.923 11.75-4.125"/><path fill="#b23738" d="M643.063 231.625c4.339 3.508 5.576 6.722 6.324 12.215.45 7.92-1.22 11.269-6.387 17.16-1.504 3.077-2 4.578-2 8l2 2.313c2 2.687 2 2.687 2.563 5.625-.768 4.179-2.556 6.123-5.563 9.062l-4 1-1 4q-2.479 1.054-5 2l-1 3-4 1v2l-4 1-1 3c-2.836 2.078-2.836 2.078-6.375 4.25l-3.523 2.203C607 311 607 311 604 310l1-3 2.5-.437L610 306l1-4c3.4-2.645 5.793-3.948 10-5v-2l4-3c-5.731.43-9.202 2.992-14 6-5.158 2.022-9.44 3.428-15 3v-2h3.625c6.302-.633 11.135-4.033 16.434-7.285C619 290 619 290 621 290v-2a246 246 0 0 1 11.938-6.5c2.556-1.86 3.174-3.513 4.062-6.5l-3.937.188c-6.576.028-12.87-1.288-19.305-2.532C610 272 610 272 606 272l-1-3h-3l-1-7-8 1 2 10c-4 2-4 2-7 2v2l-2.746-.035c-13.554-.1-13.554-.1-20.254 1.035l-1 2 3 1 1 2 2.137.852c3.558 1.427 6.483 3.404 9.676 5.523 3.943 2.584 7.794 5.055 12.062 7.063 1.031.515 2.063 1.03 3.125 1.562v2c-4.026-.6-7.018-1.893-10.562-3.875l-2.817-1.555C579 293 579 293 575 290l-3.25-1.562L569 287v-2l-3 1c5.87 4.872 11.728 9.648 18 14l4 3v2l2.438.375L593 306l1 2c2.314.73 4.648 1.401 7 2l-1 3c-4.94.337-5.785.161-10-3a88 88 0 0 0-5-2v-2l-2.375-.75C580 304 580 304 578 300l-4-1c-2.03-1.482-4.057-2.969-6.035-4.52C566 293 566 293 563.125 291.437c-2.657-1.797-3.226-3.412-4.125-6.437h2l-.812-2.125C560 280 560 280 561.625 276.938c4.133-3.597 7.727-4.455 12.941-5.875 5.98-1.85 12.107-4.596 16.45-9.2 2.901-2.724 5.759-2.702 9.613-2.59 5.085 1.096 9.196 3.697 13.66 6.303 6.521 3.666 12.75 4.878 20.2 5.694 3.841.799 5.2 1.612 7.511 4.73v2h2c-5-8.714-5-8.714-10-11l2.75-3.062c6.048-7.063 8.963-13.53 8.25-22.938-1.746-3.143-3.469-5.469-6-8-6.79.266-11.425 2.916-16.625 7.125-4.8 5.81-7.628 12.57-9.375 19.875-3.322-.83-5.762-1.809-8.812-3.25-3.84-1.556-4.782-1.858-8.938-.75-3.135 1.93-6.198 3.942-9.25 6h-2l.313-2.875c-.555-7.313-3.628-12.47-8.813-17.562L572 239l-2.5-1.875c-3.403-1.531-5.812-1.594-9.5-1.125-3.635 2.2-3.98 3.916-5 8.063 0 7.298 1.808 13.24 6.438 18.937 2.433 1.9 4.85 3.528 7.562 5a329 329 0 0 1-9 7l1.188-2.687c.812-3.313.812-3.313-.313-5.938C559 264 559 264 557 262.063c-4.177-4.308-5.226-8.17-5.437-14.063.18-6.626 2.185-9.687 6.75-14.375 3.589-2.17 5.538-2.188 9.687-1.625 5.435 2.19 8.636 4.244 12 9l2.563 2.313C585 246 585 246 586.563 250.25L588 254c4 1 4 1 8.25 0 4.75-1 4.75-1 8.938-.125L609 254c3.342-3.594 5.373-6.663 7.438-11.062 4.003-7.527 9.232-10.678 17.011-13.407 3.818-.795 6.243.305 9.614 2.094"/><path fill="#060207" d="m602 262 1 7 3-4v7l4-1c2.907.38 5.803.85 8.688 1.375 6.105 1.1 12.144 1.998 18.312 2.625-.888 3.712-1.546 5.615-4.496 8.117l-2.942 1.758-2.933 1.805C624 288 624 288 621 288v2c-2.484 1.656-2.484 1.656-5.75 3.5l-3.234 1.844C606.2 298.538 602.65 299.196 596 299v2c8.305-1.827 15.481-4.058 22.688-8.75C621 291 621 291 626 291l-3 4h-2v2c-2.51 1.65-5.113 3.062-7.75 4.5C611 303 611 303 610 306l-2.5.875L605 308c-.625 2.563-.625 2.563-1 5-3.473 1.158-6.36 1.069-10 1v-1l2.938-.375L600 312l1-2-3.375-.312L594 309l-2-3-4-1a178 178 0 0 1-4-4c-1.87-1.41-3.742-2.82-5.629-4.207-4.57-3.456-8.957-7.142-13.371-10.793l4-1v2l2.652.785c3.353 1.217 5.943 2.69 8.91 4.652 9.72 6.383 9.72 6.383 14.438 7.563-1.601-3.202-4.774-3.623-8-5a216 216 0 0 1-7.062-4.5c-3.35-2.22-6.576-4.322-10.184-6.094C567 283 567 283 564 280l1-3c3.168-.512 3.168-.512 7.188-.687l3.98-.2c9.497-.28 9.497-.28 11.832.887v-2l6-2-1-10c4.18-2.09 4.804-2.166 9-1"/><path fill="#4e4249" d="m503 374 2 2c-1.007 4.028-2.346 7.741-3.812 11.625-.54 1.432-1.078 2.864-1.633 4.34a291 291 0 0 1-3.743 9.223c-2.02 4.934-3.11 10.013-4.199 15.222C491 419 491 419 490 420c-.618 7.98.026 14.514 3 22q1.357 3.682 2.688 7.375l1.324 3.586c1.049 3.225.988 5.673.988 9.039h2a105 105 0 0 1 3.438 5.875c3.23 5.904 3.23 5.904 6.562 8.125 2.03.38 4.075.683 6.125.938 14.641 2.107 27.64 8.288 37.875 19.062l2.563 2.313c5.3 5.844 7.121 11.39 6.832 19.132-.799 5.17-3.826 7.986-7.395 11.555-4.437 1.813-4.437 1.813-9 3-4.638-2.319-6.167-4.75-9-9l2-1v2c4.607 1.536 9.19 1.541 14 1 2.656-1.897 3.572-3.145 5-6 .745-7.197-1.059-10.286-5-16v-2l-4-2-2.258-2.367C538.697 487.949 525.081 484.688 513 483c1 4 1 4 4 7a147 147 0 0 1 3 7h-2a150 150 0 0 1-5.5-7.187l-1.512-2.042c-1.985-2.727-3.795-5.288-5.05-8.431-1.253-3.126-3.163-5.123-5.438-7.59l-2.406-2.64C496 467 496 467 494 466c-8.02.232-8.02.232-11.875 3.25-1.936 2.506-3.54 5.014-5.125 7.75l-3 3-2.125 4.188c-3.257 6.04-8.07 10.685-14.062 14.035-4.865 1.344-9.863.852-14.864.699-4.48-.085-7.926.037-11.949 2.078l-3 1c-.512 3.379-.512 3.379-.687 7.563l-.2 4.19L427 517l-3-1c-.687-3.422-.687-3.422-1-7.75l-.375-4.297C423 500 423 500 425.203 497.086c2.642-1.97 4.387-2.937 7.547-3.711l2.605-.715a173 173 0 0 1 5.258-1.226c2.45-.622 2.45-.622 6.387-2.434.875-4.125.875-4.125 1-8l3-1v-4h-2l2-4c4.125-1.25 4.125-1.25 8-2 3.875 7.625 3.875 7.625 5 11h7l1.188-4c1.63-4.897 3.827-8.79 6.812-13h2v-3c4-2 4-2 9-2v-3l6 2-1.68-3.14-2.195-4.11-2.18-4.078c-5.477-10.34-5.217-17.512-2.945-28.672l.629-3.492c1.299-6.785 3.075-12.719 6.113-18.922 1.233-2.535 2.295-5.086 3.32-7.711 1.843-4.692 3.864-9.282 5.938-13.875"/><path fill="#4d4148" d="M691 364c2.975 2.794 5.172 5.593 7.313 9.063 1.827 2.945 3.653 5.885 5.554 8.785C715.332 399.34 718.34 418.292 715 439l4.25.25c4.695.741 6.013 1.06 8.75 4.75l-2 1-2-1c-8.675-.609-16.173 1.57-23 7-3.255 3.472-4.838 5.35-6 10 .837-.36 1.673-.722 2.535-1.094 11.733-4.677 23.096-6.188 35.031-1.258 4.003 2.223 7.062 5.271 10.434 8.352 2.727.707 2.727.707 5 1 2.044-12.741 2.213-25.13 2-38h3c.826 7.925 1.05 15.686.84 23.652.16 3.348.16 3.348 1.289 6.164L756 462l-2 2 2.375 1.25c3.539 3.707 3.602 6.896 4.168 11.875C761 480 761 480 763 484h2q.692 2.686 1.375 5.375l.855 3.309c.68 2.932 1.084 5.772 1.457 8.753C770 506 770 506 773.5 508.688q2.247 1.162 4.5 2.313a182 182 0 0 1 5.313 3.5c.82.547 1.642 1.093 2.488 1.656 2.509 2.104 3.819 3.878 5.199 6.844v5h-2l-1.207-3.27c-2.201-4.58-3.908-5.376-8.48-7.418l-3.79-1.753c-1.162-.515-2.325-1.03-3.523-1.559-7.176-3.277-12.345-6.818-16-14a138 138 0 0 1-1.562-8.5c-1.606-10.374-1.606-10.374-3.438-13.5-5.904-1.456-9.48-1.703-14.812 1.313L732 482c-1.65.707-3.308 1.4-5 2 2.011-4.022 3.404-5.483 7-8h2v-2h4c-.242-3.548-.548-5.49-2.937-8.187-8.461-5.008-20.078-7.208-29.782-5.27-3.109 1.02-6.055 2.354-9.031 3.707-2.808.936-4.464.678-7.25-.25l-1-2c3.437-8.99 7.73-14.777 16-20a158 158 0 0 1 6-2c.034-23.423-2.324-40.788-15-61q-1.725-2.809-3.437-5.625c-.474-.755-.947-1.51-1.434-2.29C691 369 691 369 690 365z"/><path fill="#e7888c" d="M647 172c8.36 4.18 12.663 11.034 17 19l1.379 2.371c6.517 11.847 7.626 25.848 8.121 39.137l.123 3.038q.193 4.79.377 9.579c1.025 26.234 1.025 26.234 2 36.875h2l.063 3.625c1.296 11.157 8.265 20.303 15.449 28.5 4.946 5.715 9.238 11.925 13.363 18.25 3.351 5.106 7.108 9.889 10.855 14.707 4.424 5.688 8.223 11.05 10.707 17.856 1.71 4.445 3.997 8.057 6.563 12.062 4 7.351 4 7.351 4 12h-2a184 184 0 0 1-4.375-8.312C724.815 365.446 715.734 351.356 705 338q-1.816-2.34-3.625-4.687a934 934 0 0 0-7.312-9.25l-2.028-2.54a368 368 0 0 0-4.039-4.921c-13.396-16.202-18.27-31.468-19.183-52.414l-.231-4.312c-.35-6.77-.616-13.537-.781-20.313-.34-13.621-1.552-26.311-4.801-39.563h2c-1.305-5.09-3.726-8.75-6.758-12.95C657 185 657 185 657 182h-2c-1.691-1.68-1.691-1.68-3.562-3.875l-1.88-2.18C648 174 648 174 647 172"/><path fill="#f1a9ab" d="m604.938 157.688 3.198.014c7.328.11 13.957.695 20.864 3.298l3.164 1.137c9.338 3.6 15.797 8.911 21.836 16.863l1 3h2c1.402 2.23 1.402 2.23 2.938 5.188 1.524 2.912 3.013 5.737 4.816 8.488L666 198l-1 3c-3-1-3-1-4.508-3.59l-1.617-3.347C651.369 179.68 640.324 171.007 625 166c-18.08-4.26-38.395-2.63-55 6-9.978 6.656-16.174 12.973-21.437 23.672C547 198 547 198 543 199c-.17-8.695 4.586-14.654 10-21 14.874-14.12 31.776-20.424 51.938-20.312"/><path fill="#b82c2c" d="m491 461 1 2-4.187.563c-3.909.524-4.783 1.4-7.372 4.527-2.422 3.88-4.394 7.762-6.316 11.91-4.7 9.54-9.086 14.799-19.125 19-4.762.32-4.762.32-9.687.125-9.916-.36-9.916-.36-14.313 1.875l-3 1c-.512 3.379-.512 3.379-.687 7.563l-.2 4.19L427 517l-3-1c-.687-3.422-.687-3.422-1-7.75l-.375-4.297C423 500 423 500 425.203 497.086c2.642-1.97 4.387-2.937 7.547-3.711l2.605-.715a173 173 0 0 1 5.258-1.226c2.45-.622 2.45-.622 6.387-2.434.875-4.125.875-4.125 1-8l3-1v-4h-2l2-4c4.125-1.25 4.125-1.25 8-2 3.875 7.625 3.875 7.625 5 11h7l1.188-4c2.169-6.406 4.754-11.493 10.312-15.562 3.56-1.462 4.978-1.888 8.5-.438"/><path fill="#591614" d="m602 262 1 7 3-4v7l4-1c2.907.38 5.803.85 8.688 1.375 6.105 1.1 12.144 1.998 18.312 2.625-.905 3.7-1.439 5.565-4.5 7.938L630 284l-2-1c1.813-2 1.813-2 4-4h3v-2l-2.125 1.063c-3.378 1.1-5.456.732-8.875-.063l1 3c-2.375.625-2.375.625-5 1l-2-2-1 5-3-1v-2l-5-1-2 4-5-3v2c-3.203 1.601-6.479 1.057-10 1v-2h-4l-1 4v-2l-2.812.063C581 285 581 285 578 284h-4l7 5c-4.023 0-5.709-1.762-9-4l-2.687-1.062C567 283 567 283 564 280l1-3c3.168-.512 3.168-.512 7.188-.687l3.98-.2c9.497-.28 9.497-.28 11.832.887v-2l6-2-1-10c4.18-2.09 4.804-2.166 9-1"/><path fill="#5a1715" d="m641 226 4 3v2h2c4.244 7.845 6.027 13.455 4.375 22.375-1.582 4.17-3.749 7.602-6.23 11.293C644 267 644 267 645 271l1 2c.04 2.333.043 4.667 0 7h-1l-.75-3.062c-1.287-4.053-3.036-7.322-5.25-10.938l2-1 .813-2.125C643 260 643 260 645.625 256.938c3.262-5.408 3.136-9.772 2.375-15.938-1.225-4.19-1.988-6.221-5.437-8.875-5.943-2.609-9.013-1.733-14.801.508-6.37 3.153-9.784 8.022-12.762 14.367-1.743 3.402-3.205 5.155-6 8-2.914.245-5.372-.124-8.246-.645-2.754-.355-2.754-.355-7.192.833-3.562.812-3.562.812-5.875-.625-2.6-3.948-4.198-8.097-5.687-12.563l-4-2-2.437-2.5c-3.585-3.497-6.082-4.312-11-4.937-4.591.563-6.366 2.166-9.563 5.437-2.698 5.395-2.668 10.054-2 16 2 4.125 2 4.125 4 7v2l3 1c1.813 2.313 1.813 2.313 3 5-2 4-2 4-4 7l-.75-3.125c-1.262-3.914-2.918-6.523-5.25-9.875-.68-1.661-1.35-3.327-2-5l-2-2c-.92-8.654-.903-16.645 4-24 5.326-2.93 9.984-3.648 16-3 4.333 1.312 8.07 2.672 10.75 6.5L581 238l2.563 1.875C586 242 586 242 587 245.625c1 3.375 1 3.375 3.188 4.813 4.514.902 8.427 1.024 12.812-.438h5c1.879-1.977 1.879-1.977 3.563-4.625l1.796-2.758L615 240c5.039-7.626 5.039-7.626 8.25-8.875 2.75-1.125 2.75-1.125 5.5-3.25 4.328-2.497 7.33-2.367 12.25-1.875"/><path fill="#b82c2c" d="M753 465c3.172.352 3.172.352 6 2 .953 2.898.953 2.898 1.25 6.375.41 4.328.767 6.659 2.75 10.625h2q.692 2.686 1.375 5.375l.855 3.309c.68 2.932 1.084 5.772 1.457 8.753C770 506 770 506 773.5 508.688q2.247 1.162 4.5 2.313a182 182 0 0 1 5.313 3.5c.82.547 1.642 1.093 2.488 1.656 2.509 2.104 3.819 3.878 5.199 6.844v5h-2l-1.207-3.27c-2.201-4.58-3.908-5.376-8.48-7.418l-3.79-1.753c-1.162-.515-2.325-1.03-3.523-1.559-7.176-3.277-12.345-6.818-16-14a138 138 0 0 1-1.562-8.5c-1.606-10.374-1.606-10.374-3.438-13.5-5.904-1.456-9.48-1.703-14.812 1.313L732 482c-1.65.707-3.308 1.4-5 2 2.011-4.022 3.404-5.483 7-8h2v-2l2.703-.953 3.547-1.297 3.516-1.266C749 469 749 469 751.046 466.704zM643.063 231.625c4.339 3.508 5.576 6.722 6.324 12.215.45 7.92-1.22 11.269-6.387 17.16-1.504 3.077-2 4.578-2 8l2.063 2.5L645 274l-1 3-4.297-6.055C638 269 638 269 634 267l2.75-3.062c6.048-7.063 8.963-13.53 8.25-22.938-1.746-3.143-3.469-5.469-6-8-6.79.266-11.425 2.916-16.625 7.125-4.8 5.81-7.628 12.57-9.375 19.875-3.322-.83-5.762-1.809-8.812-3.25-3.84-1.556-4.782-1.858-8.938-.75-3.135 1.93-6.198 3.942-9.25 6h-2l.313-2.875c-.555-7.313-3.628-12.47-8.813-17.562L572 239l-2.5-1.875c-3.403-1.531-5.812-1.594-9.5-1.125-3.635 2.2-3.98 3.916-5 8.063 0 7.298 1.808 13.24 6.438 18.937 2.433 1.9 4.85 3.528 7.562 5a329 329 0 0 1-9 7l1.188-2.687c.812-3.313.812-3.313-.313-5.938C559 264 559 264 557 262.063c-4.177-4.308-5.226-8.17-5.437-14.063.18-6.626 2.185-9.687 6.75-14.375 3.589-2.17 5.538-2.188 9.687-1.625 5.435 2.19 8.636 4.244 12 9l2.563 2.313C585 246 585 246 586.563 250.25L588 254c4 1 4 1 8.25 0 4.75-1 4.75-1 8.938-.125L609 254c3.342-3.594 5.373-6.663 7.438-11.062 4.003-7.527 9.232-10.678 17.011-13.407 3.818-.795 6.243.305 9.614 2.094"/><path fill="#7c1e1d" d="M666 216c2.27 4.54 2.425 8.248 2.598 13.2l.118 2.752c.124 2.912.236 5.823.346 8.736q.234 5.692.473 11.386l.117 2.814c.244 5.836.507 11.67.817 17.503l.205 3.887c1.533 17.5 9.52 31.04 21.326 43.722 2.73 3.283 5.356 6.647 8 10l3.2 3.973A287 287 0 0 1 726 367l1.488 2.507a637 637 0 0 1 4.262 7.368l1.306 2.252C735.338 383.222 736 385.164 736 390l-2-3-2.812-4.125a118 118 0 0 1-5.875-9.75C723 369 723 369 720 366c-1.896-2.844-3.19-5.488-4.437-8.687C714 354 714 354 710 352c-1.86-3.012-1.86-3.012-3.75-6.687-3.628-6.617-7.318-11.847-14.25-15.313v-2h-2l-3-10h-2a154 154 0 0 1-8.25-11.437C675 304 675 304 673 303c-1.93-4.502-2-8.163-2-13l-.934-3.68c-5.525-22.384-3.693-47.381-4.066-70.32"/><path fill="#5c2020" d="M565 285h4v2l2.652.785c3.353 1.217 5.943 2.69 8.91 4.652 9.72 6.383 9.72 6.383 14.438 7.563-1.602-3.204-4.778-3.627-8-5a148 148 0 0 1-6-4l4-1a159 159 0 0 1 6 5c9.222 2.306 15.794-.13 23.875-4.687C619 288 619 288 621 288v2c-2.484 1.656-2.484 1.656-5.75 3.5l-3.234 1.844C606.2 298.538 602.65 299.196 596 299v2c8.305-1.827 15.481-4.058 22.688-8.75C621 291 621 291 626 291l-3 4h-2v2c-2.51 1.65-5.113 3.062-7.75 4.5C611 303 611 303 610 306l-2.5.875L605 308c-.625 2.563-.625 2.563-1 5-3.473 1.158-6.36 1.069-10 1v-1l2.938-.375L600 312l1-2-3.375-.312L594 309l-2-3-4-1a178 178 0 0 1-4-4 638 638 0 0 0-5.629-4.21c-4.569-3.448-9.06-7.025-13.371-10.79z"/><path fill="#b82c2c" d="M648.05 177.668c10.862 9.891 16.947 23.896 17.95 38.332h-1l-.375-2.063C662.189 202.49 657.631 191.104 649 183l-1.992-2.59c-6.378-7.656-17.467-12.63-27.195-14-21.619-1.842-41.438-.379-58.86 13.781-7.304 6.947-11.74 15.357-14.953 24.809l-1.687 4.562c-2.692 9.1-2.47 18.295-2.524 27.711l-.086 8.375a3837 3837 0 0 0-.104 13.1c-.028 4.238-.074 8.475-.122 12.713l-.01 3.918c-.104 7.733-1.106 14.249-3.467 21.621-1.017-4.07-.844-5.728-.066-9.73 1.31-7.894 1.244-15.6 1.129-23.583-.433-63.334-.433-63.334 17.257-82.156 24.857-23.376 65.13-25.498 91.73-3.863"/><path fill="#efa3a6" d="m536 283 2 1c-1.01 9.264-2.393 16.83-7.5 24.75l-1.346 2.092c-3.55 5.435-7.417 10.572-11.44 15.662-3.823 4.924-7.443 9.987-11.073 15.054a522 522 0 0 1-7.926 10.801C496 356 496 356 494.313 358.938 493 361 493 361 490 362c4.04-10.585 10.062-19.83 16.766-28.906 1.907-2.641 3.562-5.304 5.234-8.094a323 323 0 0 1 4.313-5.812l2.406-3.192a512 512 0 0 1 4.062-5.273c2.547-3.28 4.685-6.486 6.469-10.223L531 297h2l.938-4.75A188 188 0 0 1 536 283"/><path fill="#ec989b" d="M488.875 460.125C491 461 491 461 492 463l-4.187.563c-3.909.524-4.783 1.4-7.372 4.527-2.422 3.88-4.394 7.762-6.316 11.91-4.7 9.54-9.086 14.799-19.125 19-4.762.32-4.762.32-9.687.125-9.916-.36-9.916-.36-14.313 1.875l-3 1c-.512 3.379-.512 3.379-.687 7.563l-.2 4.19L427 517l-3-1c-1.515-5.243-1.432-9.867.5-14.937 3.295-4.037 6.644-6.698 11.97-7.378 2.784-.087 5.557-.085 8.342-.06 8.266-.162 15.068-.41 21.188-6.625 4.746-6.328 7.965-13.745 11.375-20.875 2.932-3.834 6.617-6.212 11.5-6"/><path fill="#721c1a" d="m494 465 3 3-4.687.688c-4.863.947-7.071 2.48-10.313 6.312l-3 1c-1.187 4.063-1.187 4.063-2 8h-2l-1.25 4.313c-1.257 4.337-1.795 4.72-5.75 7.687h-3l-2 4c-7.306 3.367-13.648 3.227-21.562 2.688l-3.346-.186A862 862 0 0 1 430 502c2-3 2-3 6-4 4.738.048 9.468.195 14.203.355 6.067-.45 10.27-2.239 14.934-6.144 3.78-4.476 6.452-8.938 8.82-14.305L475 476h2l1.875-3.312c3.672-6.373 8.024-8.28 15.125-7.688"/><path fill="#e47c81" d="M693 315c6 5.437 10.502 12.202 14.93 18.934 2.254 3.338 4.662 6.51 7.133 9.691 10.575 13.645 10.575 13.645 13.375 21.313 1.71 4.445 3.996 8.057 6.562 12.062 4 7.351 4 7.351 4 12h-2a184 184 0 0 1-4.375-8.312C724.813 365.44 715.725 351.37 705 338l-3-4 1-2c-1.865-3.73-4.076-6.731-6.602-10.027-1.568-2.213-2.59-4.385-3.398-6.973"/><path fill="#534148" d="M670 468c3-.812 3-.812 7 0 4.468 3.301 8.276 7.238 12.152 11.2 2.126 2.071 4.246 3.375 6.848 4.8l2.742 1.555c5.64 2.502 11.215 2.275 17.258 1.445 4.782-1.93 8.594-4.473 12.086-8.266L730 477l3 1-2.437 1.875C728 482 728 482 727 484l4-1-1 2h-3l-1 3c-7.074 3.644-12.542 5.913-20.5 3.813-9.838-3.963-17.555-10.129-25.25-17.313-3.25-2.5-3.25-2.5-6.375-3-2.866.498-5.247 1.263-7.875 2.5v-2h2z"/><path fill="#bb3232" d="M428 502h2l-.503 2.122c-.53 3.064-.546 5.815-.454 8.921l.064 3.506q.08 3.61.196 7.219c.117 7.817-.915 13.172-4.303 20.232-2.376 5.104-3.506 9.374-4 15l-3-1c-1.626-5.772-.474-9.359 1.875-14.75l1.68-3.922L423 536c2.155-6.466.734-12.736-.555-19.234-.64-3.973-.577-7.75-.445-11.766 2 2 2 2 2.5 6.563L425 516l2 1-.035-2.52-.027-3.293-.036-3.269C427 505 427 505 428 502"/><path fill="#4f3a40" d="m556 295 4 2-1 3c-3.062.688-3.062.688-6 1l-.625 3.438C549.725 316.35 544.841 327.832 540 339l-1.5 3.563c-1.754 4.018-3.579 8.002-5.414 11.984C532 357 532 357 531 360l-3 1c.715-4.578 2.322-8.695 4-13h2l.688-3.812c1.069-4.886 3.001-9.11 5.144-13.61 1.412-3.117 2.308-6.27 3.168-9.578.94-2.468 1.952-4.889 3-7.312 1-2.688 1-2.688 1.938-6.688 1.58-5.948 3.114-8.29 8.062-12"/><path fill="#811f1e" d="M536 297c1.444 4.331.52 7.826-1 12-3.293 5.715-7.29 10.41-12 15a303 303 0 0 0-4.379 5.813c-2.306 3.112-4.757 6.106-7.203 9.109C510 341 510 341 509 345a195 195 0 0 1-7 5c-1.702 1.63-3.383 3.285-5 5 2.14-4.28 4.737-8.05 7.5-11.937l1.629-2.303c3.19-4.484 6.471-8.87 9.871-13.197 4.043-5.19 7.783-10.534 11.438-16l1.54-2.297c2.63-3.975 5.003-7.947 7.022-12.266"/><path fill="#e7888c" d="M754 473c5.154 5.154 5.323 9.2 5.625 16.25l.227 4.953L760 498h-3l-.25-4.437c-.51-5.265-1.864-11.677-5.75-15.563-8.422-1.638-11.834-.6-19 4-1.65.707-3.308 1.4-5 2 2.011-4.022 3.404-5.483 7-8h2v-2c6.228-2.83 11.624-3.898 18-1"/><path fill="#6c2323" d="M621 288v2c-2.484 1.656-2.484 1.656-5.75 3.5l-3.234 1.844C606.2 298.538 602.65 299.196 596 299v2c8.365-1.84 15.538-4.124 22.813-8.812L621 291l3 1c-18.97 12.175-18.97 12.175-30 10-4.406-1.564-6.677-2.677-10-6 3.724 1.213 7.378 2.509 11 4-1.602-3.204-4.778-3.627-8-5a148 148 0 0 1-6-4l4-1a159 159 0 0 1 6 5c9.222 2.306 15.794-.13 23.875-4.687C619 288 619 288 621 288"/><path fill="#eb9498" d="m543 194 1 2-1 3 3-1-1.375 4.688C542.18 211.636 541.082 220.8 540 230l-4 1c-.629-13.286.7-25.12 7-37"/><path fill="#e47f84" d="M488.875 460.125C491 461 491 461 492 463l-4.187.563c-3.909.524-4.783 1.4-7.372 4.527-2.422 3.88-4.394 7.762-6.316 11.91-3.689 7.545-7.099 12.316-14.125 17l-4-1h2v-2l-2-1 2.012-1.031c10.62-5.83 14.329-15.318 19.363-25.844 2.932-3.834 6.617-6.212 11.5-6"/><path fill="#e47c81" d="M760 500c3 1 3 1 5.25 3.813 3.965 4.596 8.136 6.616 13.813 8.625C784.918 514.76 788.18 517.36 791 523v5h-2l-1.207-3.27c-2.201-4.58-3.908-5.376-8.48-7.418l-3.79-1.761a5924 5924 0 0 0-8.086-3.551c-4.138-2.408-6.097-4.85-8.437-9z"/><path fill="#4c3f46" d="M770 542h3c-1 4-1 4-4 7 .813 2.688.813 2.688 2 5h5v2h-2v2c-3.945.807-6 1-10 0v-2h2v-3l-2-1v2h-2l-1 6h-3l2-8-3-1 1-3c3.063-1.187 3.063-1.187 6-2l1 3 2-4z"/><path fill="#e7898d" d="m511 328 1 2 2 1a9388 9388 0 0 1-5.625 8l-1.582 2.254c-2.642 3.751-5.317 7.466-8.086 11.125C496 356 496 356 494.313 358.937 493 361 493 361 490 362c4.626-12.12 11.794-24.794 21-34"/><path fill="#040207" d="m624 291 2 1-3 3h-2v2a101 101 0 0 1-5 3l-2.254 1.605c-5.538 3.795-10.022 5.39-16.773 5.06C590.36 305.186 585.67 300.67 581 296c4 1 4 1 6.313 2.438 4.898 2.847 10.045 4.239 15.687 3.562 6.63-2.511 12.478-5.98 18.496-9.707z"/><path fill="#e47e83" d="M606.633 256.957C609 258 609 258 613 259l2-2 1 5-2.875-.062C610 262 610 262 608 263l-4-2c-4.586-.73-9.134-1.138-13.203 1.344-1.664 1.482-3.238 3.064-4.797 4.656h-2v-2l4-3-2-1c7.883-5.99 11.53-8.198 20.633-4.043"/><path fill="#f7bcbd" d="m665 203 3 1c3.574 9.73 3.268 20.272 3.563 30.5l.13 4.227q.159 5.136.307 10.273h-2c-.848-6.567-1.126-12.946-1.062-19.562l.013-2.768q.02-3.335.049-6.67h-2c-1.274-5.812-2.26-11.018-2-17"/><path fill="#b82c2c" d="M666 216c2.27 4.54 2.425 8.248 2.598 13.2l.118 2.752c.124 2.912.236 5.823.346 8.736a6292 6292 0 0 0 .473 11.386l.117 2.81c.247 5.875.505 11.748.809 17.62l.2 3.951c.487 5.092 1.86 9.656 3.339 14.545v5c-13.078-19.617-7.628-57.132-8-80"/><path fill="#f2aeb0" d="M682 304c6.348 6.15 12.237 12.539 17 20q1.65 2.13 3.313 4.25L705 332l-1 2c-9.54-7.632-16.547-17.093-22-28z"/></g>
</defs>
<g clip-path="url(#rc)">
  <rect x="258" y="10" width="720" height="720" rx="129" fill="#000"/>
  <ellipse cx="618" cy="330" rx="322" ry="348" fill="url(#aura)"/>
  <use xlink:href="#art" filter="url(#bloom)"/>
  <use xlink:href="#art"/>
  <g>
    <ellipse cx="590" cy="278" rx="22" ry="30" fill="#e00018" filter="url(#eyefar)" transform="rotate(26 590 278)"/>
    <ellipse cx="590" cy="278" rx="16" ry="24" fill="#ff2a48" filter="url(#eyered)" transform="rotate(26 590 278)"/>
    <ellipse cx="590" cy="278" rx="8" ry="16" fill="#fff4ef" filter="url(#eyecore)" transform="rotate(26 590 278)"/>
    <ellipse cx="646" cy="278" rx="22" ry="30" fill="#e00018" filter="url(#eyefar)" transform="rotate(-26 646 278)"/>
    <ellipse cx="646" cy="278" rx="16" ry="24" fill="#ff2a48" filter="url(#eyered)" transform="rotate(-26 646 278)"/>
    <ellipse cx="646" cy="278" rx="8" ry="16" fill="#fff4ef" filter="url(#eyecore)" transform="rotate(-26 646 278)"/></g>
  <rect x="258" y="10" width="720" height="720" fill="url(#vig)"/>
</g>
</svg>